<svg id="visual" viewBox="0 0 900 450" width="900" height="450" xmlns="http://www.w3.org/2000/svg" xmlns:xlink="http://www.w3.org/1999/xlink" version="1.1"><path d="M0 82L16.7 83.5C33.3 85 66.7 88 100 85.8C133.3 83.7 166.7 76.3 200 77.8C233.3 79.3 266.7 89.7 300 88.8C333.3 88 366.7 76 400 71.5C433.3 67 466.7 70 500 84.3C533.3 98.7 566.7 124.3 600 126.7C633.3 129 666.7 108 700 103.5C733.3 99 766.7 111 800 114.7C833.3 118.3 866.7 113.7 883.3 111.3L900 109L900 0L883.3 0C866.7 0 833.3 0 800 0C766.7 0 733.3 0 700 0C666.7 0 633.3 0 600 0C566.7 0 533.3 0 500 0C466.7 0 433.3 0 400 0C366.7 0 333.3 0 300 0C266.7 0 233.3 0 200 0C166.7 0 133.3 0 100 0C66.7 0 33.3 0 16.7 0L0 0Z" fill="#ffffff"></path><path d="M0 132L16.7 134.2C33.3 136.3 66.7 140.7 100 136.8C133.3 133 166.7 121 200 123.3C233.3 125.7 266.7 142.3 300 146.2C333.3 150 366.7 141 400 135C433.3 129 466.7 126 500 134.2C533.3 142.3 566.7 161.7 600 164.7C633.3 167.7 666.7 154.3 700 151.3C733.3 148.3 766.7 155.7 800 158.7C833.3 161.7 866.7 160.3 883.3 159.7L900 159L900 107L883.3 109.3C866.7 111.7 833.3 116.3 800 112.7C766.7 109 733.3 97 700 101.5C666.7 106 633.3 127 600 124.7C566.7 122.3 533.3 96.7 500 82.3C466.7 68 433.3 65 400 69.5C366.7 74 333.3 86 300 86.8C266.7 87.7 233.3 77.3 200 75.8C166.7 74.3 133.3 81.7 100 83.8C66.7 86 33.3 83 16.7 81.5L0 80Z" fill="#befff1"></path><path d="M0 244L16.7 254.5C33.3 265 66.7 286 100 292C133.3 298 166.7 289 200 279.3C233.3 269.7 266.7 259.3 300 257.2C333.3 255 366.7 261 400 258.7C433.3 256.3 466.7 245.7 500 247.2C533.3 248.7 566.7 262.3 600 259.3C633.3 256.3 666.7 236.7 700 229.2C733.3 221.7 766.7 226.3 800 234.7C833.3 243 866.7 255 883.3 261L900 267L900 157L883.3 157.7C866.7 158.3 833.3 159.7 800 156.7C766.7 153.7 733.3 146.3 700 149.3C666.7 152.3 633.3 165.7 600 162.7C566.7 159.7 533.3 140.3 500 132.2C466.7 124 433.3 127 400 133C366.7 139 333.3 148 300 144.2C266.7 140.3 233.3 123.7 200 121.3C166.7 119 133.3 131 100 134.8C66.7 138.7 33.3 134.3 16.7 132.2L0 130Z" fill="#64ffe3"></path><path d="M0 280L16.7 295.8C33.3 311.7 66.7 343.3 100 352.3C133.3 361.3 166.7 347.7 200 336.3C233.3 325 266.7 316 300 312.3C333.3 308.7 366.7 310.3 400 303.7C433.3 297 466.7 282 500 279.7C533.3 277.3 566.7 287.7 600 289.2C633.3 290.7 666.7 283.3 700 281.8C733.3 280.3 766.7 284.7 800 293.7C833.3 302.7 866.7 316.3 883.3 323.2L900 330L900 265L883.3 259C866.7 253 833.3 241 800 232.7C766.7 224.3 733.3 219.7 700 227.2C666.7 234.7 633.3 254.3 600 257.3C566.7 260.3 533.3 246.7 500 245.2C466.7 243.7 433.3 254.3 400 256.7C366.7 259 333.3 253 300 255.2C266.7 257.3 233.3 267.7 200 277.3C166.7 287 133.3 296 100 290C66.7 284 33.3 263 16.7 252.5L0 242Z" fill="#00ffdd"></path><path d="M0 334L16.7 345.3C33.3 356.7 66.7 379.3 100 385.3C133.3 391.3 166.7 380.7 200 370.2C233.3 359.7 266.7 349.3 300 345.7C333.3 342 366.7 345 400 342C433.3 339 466.7 330 500 331.5C533.3 333 566.7 345 600 346.5C633.3 348 666.7 339 700 332.2C733.3 325.3 766.7 320.7 800 329.7C833.3 338.7 866.7 361.3 883.3 372.7L900 384L900 328L883.3 321.2C866.7 314.3 833.3 300.7 800 291.7C766.7 282.7 733.3 278.3 700 279.8C666.7 281.3 633.3 288.7 600 287.2C566.7 285.7 533.3 275.3 500 277.7C466.7 280 433.3 295 400 301.7C366.7 308.3 333.3 306.7 300 310.3C266.7 314 233.3 323 200 334.3C166.7 345.7 133.3 359.3 100 350.3C66.7 341.3 33.3 309.7 16.7 293.8L0 278Z" fill="#64ffe3"></path><path d="M0 366L16.7 375C33.3 384 66.7 402 100 407.2C133.3 412.3 166.7 404.7 200 399.3C233.3 394 266.7 391 300 389.5C333.3 388 366.7 388 400 382.8C433.3 377.7 466.7 367.3 500 365.2C533.3 363 566.7 369 600 372.7C633.3 376.3 666.7 377.7 700 374.7C733.3 371.7 766.7 364.3 800 369.7C833.3 375 866.7 393 883.3 402L900 411L900 382L883.3 370.7C866.7 359.3 833.3 336.7 800 327.7C766.7 318.7 733.3 323.3 700 330.2C666.7 337 633.3 346 600 344.5C566.7 343 533.3 331 500 329.5C466.7 328 433.3 337 400 340C366.7 343 333.3 340 300 343.7C266.7 347.3 233.3 357.7 200 368.2C166.7 378.7 133.3 389.3 100 383.3C66.7 377.3 33.3 354.7 16.7 343.3L0 332Z" fill="#befff1"></path><path d="M0 451L16.7 451C33.3 451 66.7 451 100 451C133.3 451 166.7 451 200 451C233.3 451 266.7 451 300 451C333.3 451 366.7 451 400 451C433.3 451 466.7 451 500 451C533.3 451 566.7 451 600 451C633.3 451 666.7 451 700 451C733.3 451 766.7 451 800 451C833.3 451 866.7 451 883.3 451L900 451L900 409L883.3 400C866.7 391 833.3 373 800 367.7C766.7 362.3 733.3 369.7 700 372.7C666.7 375.7 633.3 374.3 600 370.7C566.7 367 533.3 361 500 363.2C466.7 365.3 433.3 375.7 400 380.8C366.7 386 333.3 386 300 387.5C266.7 389 233.3 392 200 397.3C166.7 402.7 133.3 410.3 100 405.2C66.7 400 33.3 382 16.7 373L0 364Z" fill="#ffffff"></path></svg>